<svg width="32" height="32" viewBox="0 0 32 32" fill="none" xmlns="http://www.w3.org/2000/svg">
  <rect width="32" height="32" rx="8" fill="#181717"/>
  <path d="M16 7.333c-4.6 0-8.333 3.733-8.333 8.333 0 3.68 2.387 6.8 5.693 7.907.42.08.573-.18.573-.4 0-.2-.007-.727-.01-1.427-2.316.503-2.805-1.117-2.805-1.117-.38-.967-.927-1.225-.927-1.225-.757-.517.057-.507.057-.507.837.06 1.277.86 1.277.86.744 1.276 1.953.908 2.43.695.075-.54.29-.908.527-1.117-1.85-.21-3.793-.927-3.793-4.127 0-.912.326-1.657.86-2.242-.087-.21-.373-1.057.082-2.205 0 0 .7-.225 2.3.86a7.98 7.98 0 012.093-.282c.71.003 1.427.096 2.093.282 1.6-1.085 2.3-.86 2.3-.86.455 1.148.169 1.995.083 2.205.535.585.86 1.33.86 2.242 0 3.207-1.947 3.914-3.803 4.12.298.257.563.765.563 1.543 0 1.113-.01 2.012-.01 2.287 0 .222.15.483.58.4C21.947 22.466 24.333 19.346 24.333 15.666c0-4.6-3.733-8.333-8.333-8.333z" fill="#fff"/>
</svg>